HIERARCHY
ROOT Hips
{
    OFFSET 0.000000 0.000000 0.000000
    CHANNELS 6 Xposition Yposition Zposition Zrotation Xrotation Yrotation
    JOINT Spine
    {
        OFFSET -0.000000 7.246840 0.000000
        CHANNELS 3 Zrotation Xrotation Yrotation
        JOINT Spine1
        {
            OFFSET -0.000000 20.289354 0.000000
            CHANNELS 3 Zrotation Xrotation Yrotation
            JOINT Neck
            {
                OFFSET -0.000000 20.206032 1.836912
                CHANNELS 3 Zrotation Xrotation Yrotation
                JOINT Head
                {
                    OFFSET -0.000000 12.372654 -1.767522
                    CHANNELS 3 Zrotation Xrotation Yrotation
                    End Site
                    {
                        OFFSET -0.000000 22.094025 0.000000
                    }
                }
            }
            JOINT LeftShoulder
            {
                OFFSET 3.465871 17.201674 -0.568930
                CHANNELS 3 Zrotation Xrotation Yrotation
                JOINT LeftArm
                {
                    OFFSET 14.070313 0.000000 0.000000
                    CHANNELS 3 Zrotation Xrotation Yrotation
                    JOINT LeftForeArm
                    {
                        OFFSET 26.549477 0.000000 0.000000
                        CHANNELS 3 Zrotation Xrotation Yrotation
                        JOINT LeftHand
                        {
                            OFFSET 18.880413 0.000000 0.000000
                            CHANNELS 3 Zrotation Xrotation Yrotation
                            End Site
                            {
                                OFFSET 13.256415 0.000000 0.000000
                            }
                        }
                    }
                }
            }
            JOINT RightShoulder
            {
                OFFSET -3.526370 17.201674 -0.568930
                CHANNELS 3 Zrotation Xrotation Yrotation
                JOINT RightArm
                {
                    OFFSET -14.070313 0.000000 0.000000
                    CHANNELS 3 Zrotation Xrotation Yrotation
                    JOINT RightForeArm
                    {
                        OFFSET -26.549477 0.000000 0.000000
                        CHANNELS 3 Zrotation Xrotation Yrotation
                        JOINT RightHand
                        {
                            OFFSET -18.880413 0.000000 0.000000
                            CHANNELS 3 Zrotation Xrotation Yrotation
                            End Site
                            {
                                OFFSET -13.256415 0.000000 0.000000
                            }
                        }
                    }
                }
            }
        }
    }
    JOINT LeftUpLeg
    {
        OFFSET 8.837609 0.000000 0.000000
        CHANNELS 3 Zrotation Xrotation Yrotation
        JOINT LeftLeg
        {
            OFFSET -0.000000 -41.345005 0.000000
            CHANNELS 3 Zrotation Xrotation Yrotation
            JOINT LeftFoot
            {
                OFFSET -0.000000 -35.500874 0.000000
                CHANNELS 3 Zrotation Xrotation Yrotation
                JOINT LeftToeBase
                {
                    OFFSET -0.000000 -5.744446 13.256415
                    CHANNELS 3 Zrotation Xrotation Yrotation
                    End Site
                    {
                        OFFSET -0.000000 0.000000 3.535044
                    }
                }
            }
        }
    }
    JOINT RightUpLeg
    {
        OFFSET -8.837609 0.000000 0.000000
        CHANNELS 3 Zrotation Xrotation Yrotation
        JOINT RightLeg
        {
            OFFSET -0.000000 -41.345005 0.000000
            CHANNELS 3 Zrotation Xrotation Yrotation
            JOINT RightFoot
            {
                OFFSET -0.000000 -35.500874 0.000000
                CHANNELS 3 Zrotation Xrotation Yrotation
                JOINT RightToeBase
                {
                    OFFSET -0.000000 -5.744446 13.256415
                    CHANNELS 3 Zrotation Xrotation Yrotation
                    End Site
                    {
                        OFFSET -0.000000 0.000000 3.535044
                    }
                }
            }
        }
    }
}
MOTION
Frames:    13
Frame Time:    0.010000
2.259666    82.485222    -72.077843    3.041695    3.280844    1.800531    -6.400966    -14.937373    -2.038432    5.339165    3.362917    -1.355258    -0.607705    32.609425    -2.786651    1.397626    -11.994033    -2.656276    18.856321    3.435999    7.556707    -33.388916    7.841226    -10.063753    7.823203    -9.609080    -12.803699    -22.566683    -7.223364    -7.670247    -15.187992    1.929914    9.342244    27.169434    4.288981    6.937333    -4.378180    -5.959694    4.068450    11.973676    -4.173399    15.520441    -1.287278    6.996643    -2.335986    -2.544656    -9.392537    -5.204382    1.105658    0.693248    -1.963958    -1.210050    -1.990900    1.714607    -8.758317    5.317400    1.959738    7.230721    -8.044512    3.509447    -0.891087    -0.145633    -10.291473    0.592639    -5.234197    -1.128147    
2.284804    82.482658    -72.067619    3.051773    3.293894    1.797560    -6.380607    -14.928433    -2.077501    5.491639    3.294398    -1.398770    -0.674667    32.609322    -2.713342    1.139290    -11.945136    -2.654418    18.859106    3.502424    7.571415    -33.225723    7.967221    -10.108212    7.820470    -9.627917    -12.742385    -22.756592    -7.210177    -7.787558    -15.147911    1.950596    9.391065    27.236185    4.335909    6.962603    -4.380367    -6.217115    3.930550    11.829961    -4.439074    15.685720    -1.312540    6.987055    -2.348749    -2.570552    -9.374080    -5.113304    1.126610    0.682627    -2.068558    -1.232657    -1.995876    1.746692    -8.807628    5.393834    2.201468    7.239259    -8.253822    3.239281    -0.904134    -0.074900    -10.230198    0.599403    -5.229432    -1.140957    
2.312030    82.480026    -72.058342    3.068481    3.295459    1.800301    -6.361615    -14.905251    -2.115550    5.638766    3.231480    -1.441700    -0.710222    32.636761    -2.643821    0.849130    -11.956156    -2.658703    18.862551    3.525287    7.592706    -33.108902    8.127075    -10.149350    7.852118    -9.732049    -12.657839    -22.891069    -7.331243    -7.671463    -15.079693    1.926399    9.438153    27.262335    4.330064    6.929714    -4.359900    -6.353539    3.893494    11.732924    -4.574533    15.848062    -1.352040    6.986086    -2.324359    -2.567755    -9.360430    -5.082547    0.917492    0.751061    -1.733560    -0.647361    -2.134918    0.918139    -8.863434    5.447181    2.219210    7.275911    -8.355968    3.219232    -0.872479    -0.004345    -10.209193    0.605266    -5.225466    -1.152062    
2.341824    82.475510    -72.050301    3.102857    3.289809    1.805838    -6.340784    -14.869510    -2.151811    5.752736    3.170453    -1.482886    -0.759485    32.639229    -2.570465    0.606697    -11.940398    -2.649606    18.847830    3.568301    7.640903    -32.979305    8.233612    -10.225346    7.854645    -9.787996    -12.544174    -22.994669    -7.380936    -7.705924    -15.020205    1.901768    9.486452    27.283926    4.329706    6.908752    -4.286455    -6.418765    3.838913    10.993415    -4.754942    15.778085    -1.401308    6.986506    -2.328715    -2.566072    -9.349062    -5.098680    1.033352    0.806040    -1.859226    -0.806124    -2.304526    1.144513    -8.932028    5.504146    2.199180    7.305201    -8.444917    3.232477    -0.895587    -0.041378    -10.225229    0.585927    -5.116125    -1.113782    
2.369344    82.471611    -72.043884    3.135924    3.282485    1.821865    -6.337754    -14.835920    -2.202802    5.888167    3.128091    -1.537776    -0.778244    32.721283    -2.558212    0.337481    -12.057113    -2.705864    18.789129    3.622450    7.698659    -32.848423    8.307537    -10.281608    7.890286    -9.811822    -12.473437    -23.117750    -7.401903    -7.683618    -15.022750    1.890983    9.571778    27.321596    4.288647    6.857758    -4.237247    -6.323586    3.872314    10.825634    -4.684451    15.766088    -1.450447    6.982541    -2.308938    -2.591184    -9.302112    -5.034655    1.063170    0.771023    -1.926125    -0.797854    -2.263500    1.132482    -8.999597    5.559371    2.207390    7.326202    -8.523863    3.255679    -0.866899    0.031573    -10.231911    0.614262    -5.196141    -1.168770    
2.397273    82.465889    -72.038857    3.179614    3.265571    1.835724    -6.319456    -14.799088    -2.246001    5.971815    3.104078    -1.586407    -0.836150    32.721050    -2.454214    0.161001    -12.077576    -2.650269    18.757219    3.657026    7.735123    -32.749847    8.338260    -10.313347    7.864882    -9.795095    -12.416075    -23.114382    -7.395656    -7.665851    -15.011692    1.862811    9.645842    27.361362    4.293899    6.838174    -4.255868    -6.186834    3.932702    11.198699    -4.489419    15.796824    -1.520182    6.994144    -2.230793    -2.577310    -9.281221    -5.117478    1.057033    0.751272    -1.943284    -0.770616    -2.257576    1.093781    -9.075548    5.621998    2.209547    7.354186    -8.600803    3.240717    -0.885744    0.023416    -10.245047    0.582610    -5.197611    -1.108567    
2.426913    82.458534    -72.035614    3.233296    3.249256    1.851148    -6.294585    -14.758485    -2.280936    6.007819    3.076752    -1.626407    -0.838173    32.720409    -2.380400    -0.030771    -12.086952    -2.620776    18.759993    3.640619    7.764918    -32.697727    8.386697    -10.312994    7.826457    -9.803066    -12.367332    -22.924662    -7.417239    -7.700898    -14.960902    1.847489    9.707168    27.323851    4.421453    6.811586    -4.203608    -6.063626    3.941664    11.005359    -4.395808    15.781871    -1.590468    6.997407    -2.240643    -2.583493    -9.256084    -5.102201    0.920805    0.697398    -1.876554    -0.645882    -2.205192    0.916443    -9.155816    5.674015    2.213701    7.391174    -8.648073    3.168057    -0.891300    0.001301    -10.178383    0.614750    -5.134281    -1.168825    
2.455556    82.451591    -72.033539    3.287356    3.228532    1.871552    -6.287088    -14.728646    -2.314466    6.068623    3.086082    -1.664742    -0.893791    32.668903    -2.296609    -0.147286    -12.050570    -2.570726    18.751970    3.663539    7.743760    -32.686001    8.404537    -10.282583    7.864706    -9.758399    -12.341745    -22.940739    -7.388744    -7.602282    -14.938243    1.796256    9.755638    27.283306    4.557448    6.772867    -4.152743    -5.938639    3.969638    10.830705    -4.302752    15.707340    -1.654436    6.995642    -2.235950    -2.602240    -9.203208    -5.139843    1.078302    0.711661    -1.966070    -0.790644    -2.280515    1.122367    -9.241867    5.725287    2.232590    7.387012    -8.703010    3.225512    -0.865144    0.037602    -10.273573    0.606371    -5.196506    -1.153760    
2.481527    82.444695    -72.031776    3.345301    3.199935    1.890205    -6.279472    -14.700579    -2.334434    6.100526    3.118444    -1.689844    -0.915101    32.649361    -2.233341    -0.246408    -12.073708    -2.532489    18.743179    3.674471    7.732967    -32.684612    8.372451    -10.284944    7.849885    -9.732826    -12.360019    -22.834408    -7.380662    -7.552457    -14.930371    1.803242    9.761379    27.264950    4.590305    6.806749    -4.141991    -5.905381    3.925442    10.710822    -4.283258    15.757294    -1.727756    7.011737    -2.201689    -2.605792    -9.176732    -5.195958    1.300551    0.690916    -2.267212    -1.254630    -2.087130    1.778834    -9.322706    5.769852    2.253771    7.415185    -8.716726    3.171970    -0.886441    0.005641    -10.223322    0.591764    -5.189385    -1.125871    
2.506873    82.439888    -72.031487    3.397791    3.173411    1.904692    -6.278483    -14.680154    -2.349206    6.145424    3.157884    -1.709239    -0.918950    32.646347    -2.166644    -0.349523    -12.135428    -2.489152    18.727625    3.670615    7.705393    -32.715828    8.309460    -10.269898    7.821656    -9.766233    -12.354526    -22.667345    -7.422606    -7.584983    -14.938345    1.806272    9.782660    27.222755    4.640116    6.797972    -4.118904    -5.989881    3.889540    10.589109    -4.377687    15.856026    -1.795016    7.015500    -2.181333    -2.597839    -9.136308    -5.307925    1.295516    0.662317    -2.124291    -1.207176    -2.056995    1.711237    -9.400269    5.804136    2.307582    7.429193    -8.721556    3.162903    -0.916783    -0.026644    -10.283553    0.611643    -5.190026    -1.163701    
2.530052    82.436035    -72.031715    3.444757    3.148626    1.917902    -6.267592    -14.672134    -2.354642    6.174409    3.218844    -1.720594    -0.944940    32.648872    -2.107874    -0.383083    -12.215664    -2.440747    18.702143    3.658382    7.688891    -32.757828    8.253459    -10.270677    7.815226    -9.857572    -12.325609    -22.532694    -7.500694    -7.714619    -14.953628    1.812692    9.773780    27.173994    4.681691    6.815157    -4.086442    -6.091625    3.847754    10.441338    -4.491638    15.978225    -1.854494    7.023405    -2.122581    -2.637977    -9.090679    -5.231200    1.114451    0.714176    -1.848092    -0.648014    -2.163667    0.919230    -9.465678    5.794955    2.061931    7.476278    -8.594023    3.495210    -0.881604    -0.085736    -10.393592    0.607833    -5.143843    -1.155809    
2.550974    82.433868    -72.033478    3.491451    3.129078    1.925097    -6.245592    -14.665903    -2.346226    6.168528    3.276216    -1.718317    -0.876017    32.679115    -2.087364    -0.487448    -12.336091    -2.434642    18.706156    3.641895    7.668110    -32.838547    8.184937    -10.281043    7.878760    -9.866593    -12.218048    -22.589224    -7.473823    -7.878448    -14.968182    1.821231    9.755075    27.138004    4.720454    6.813432    -4.075910    -6.093312    3.834126    10.291372    -4.506912    16.070299    -1.913698    7.017259    -2.114852    -2.624551    -9.048311    -5.324115    1.303413    0.671790    -2.258580    -1.251497    -2.104579    1.774585    -9.530795    5.844084    2.352539    7.434159    -8.693423    3.202284    -1.086153    -0.070717    -10.321409    0.593925    -5.029747    -1.127813    
2.571097    82.433235    -72.034981    3.532385    3.109326    1.935214    -6.208059    -14.642943    -2.339896    6.141539    3.308033    -1.719010    -0.801969    32.700005    -2.073089    -0.586938    -12.422589    -2.432870    18.713261    3.658034    7.664998    -32.935322    8.111089    -10.301409    7.877263    -9.978445    -12.184542    -22.518215    -7.557119    -8.063870    -15.001626    1.817920    9.752650    27.110619    4.809603    6.781760    -4.088556    -6.044648    3.874633    10.219579    -4.461396    16.125700    -1.980773    7.023149    -2.044753    -2.609160    -9.018548    -5.376126    1.308369    0.659096    -2.253108    -1.236475    -2.106254    1.753304    -9.588735    5.823109    2.109149    7.478203    -8.557761    3.539627    -1.055541    -0.133289    -10.433699    0.596638    -5.043982    -1.133158    
